<?xml version="1.0" encoding="UTF-8"?>
<svg width="334px" height="198px" viewBox="0 0 334 198" version="1.1" xmlns="http://www.w3.org/2000/svg" xmlns:xlink="http://www.w3.org/1999/xlink">
    <title>flutter-getx-starter</title>
    <g id="页面-1" stroke="none" stroke-width="1" fill="none" fill-rule="evenodd">
        <g id="编组" fill-rule="nonzero">
            <g id="闪电-@2x" fill="#6CB7F8">
                <path d="M92.4611304,0 L219.538869,0 C225.179623,0 228,2.80666664 228,8.41999991 L228,11.5800001 C228,17.1933334 225.179623,20 219.538869,20 L92.4611304,20 C86.8203768,20 84,17.1933334 84,11.5800001 L84,8.41999991 C84,2.80666664 86.8203768,0 92.4611304,0 Z" id="路径"></path>
                <path d="M50.4611304,59 L177.53887,59 C183.179623,59 186,61.8066668 186,67.4200003 L186,70.5800001 C186,76.1933334 183.179623,79 177.53887,79 L50.4611304,79 C44.8203768,79 42,76.1933334 42,70.5800001 L42,67.4200003 C42,61.806667 44.8203768,59 50.4611304,59 Z" id="路径"></path>
                <path d="M8.46113041,119 L135.53887,119 C141.179623,119 144,121.806667 144,127.42 L144,130.58 C144,136.193333 141.179623,139 135.53887,139 L8.46113041,139 C2.8203768,139 0,136.193333 0,130.58 L0,127.42 C0,121.806667 2.8203768,119 8.46113041,119 Z" id="路径"></path>
                <path d="M24.4252117,178 L201.574789,178 C207.191596,178 210,180.806667 210,186.42 L210,189.58 C210,195.193333 207.191596,198 201.574789,198 L24.4252117,198 C18.8084041,198 16,195.193333 16,189.58 L16,186.42 C16,180.806667 18.8084039,178 24.4252117,178 Z" id="路径"></path>
            </g>
            <g id="flutter" transform="translate(174.000000, 0.000000)">
                <path d="M106.66875,144.66875 L160,91.3375 L99,91.3375 L76.2,114.20625 L106.66875,144.675 L106.66875,144.66875 Z M99,0 L0,99 L30.46875,129.46875 L160,0 L99,0 Z" id="形状" fill="#42A5F5" opacity="0.8"></path>
                <polygon id="路径" fill="#0D47A1" points="89.13125 170.66875 80.4625 179.4 76.19375 175.13125 76.19375 175.2 98.99375 198 159.99375 198 107.725 145.73125 121.39375 159.53125"></polygon>
                <polygon id="路径" fill="#42A5F5" points="45.76875 144.725 76.21875 114.26875 106.675 144.71875 76.225 175.175"></polygon>
                <polygon id="路径" fill="#0D47A1" points="80.46875 179.4 89.1375 170.66875 76.20625 175.1375"></polygon>
                <path d="M80.46875,179.4 L89.1375,170.66875 L76.20625,175.1375 L80.46875,179.4 Z M106.66875,144.66875 L106.66875,144.7375 L106.66875,144.66875 Z" id="形状" fill="#000000"></path>
                <polygon id="路径" fill="#0D47A1" points="106.66875 144.73125 110.86875 148.93125 89.1375 170.6625 121.40625 159.53125 106.675 144.6625"></polygon>
                <path d="M106.66875,144.73125 L110.86875,148.93125 L89.1375,170.6625 L121.40625,159.53125 L106.675,144.6625 L106.66875,144.73125 Z M106.66875,144.73125 L76.2,175.13125 L106.66875,144.73125 Z M106.66875,144.73125 L76.2,175.13125 L106.66875,144.73125 Z" id="形状" fill="#000000"></path>
                <polygon id="路径" fill="#0D47A1" points="76.2 175.13125 89.13125 170.6625 110.8625 148.93125 106.6625 144.73125 76.19375 175.13125"></polygon>
                <polygon id="路径" fill="#000000" points="76.2 175.13125 89.13125 170.6625 110.8625 148.93125 106.6625 144.73125 76.19375 175.13125"></polygon>
                <polygon id="路径" fill="#000000" points="76.2 175.13125 89.13125 170.6625 110.8625 148.93125 106.6625 144.73125 76.19375 175.13125"></polygon>
            </g>
        </g>
    </g>
</svg>