<?xml version="1.0" encoding="UTF-8"?>
<svg width="16px" height="16px" viewBox="0 0 16 16" version="1.1" xmlns="http://www.w3.org/2000/svg">
    <title>编组</title>
    <g id="页面-1" stroke="none" stroke-width="1" fill="none" fill-rule="evenodd">
        <g id="编组">
            <rect id="矩形" x="0" y="0" width="16" height="16"></rect>
            <g id="logo" transform="translate(0.000000, 3.000000)" fill-rule="nonzero">
                <g id="闪电-@2x" fill="#6CB7F8">
                    <path d="M4.42927571,0 L10.516832,0 C10.7870478,0 10.9221557,0.134451097 10.9221557,0.403353289 L10.9221557,0.554730544 C10.9221557,0.823632738 10.7870478,0.958083832 10.516832,0.958083832 L4.42927571,0.958083832 C4.15905997,0.958083832 4.0239521,0.823632738 4.0239521,0.554730544 L4.0239521,0.403353289 C4.0239521,0.134451097 4.15905997,0 4.42927571,0 Z" id="路径"></path>
                    <path d="M2.41729966,2.82634731 L8.50485605,2.82634731 C8.77507176,2.82634731 8.91017964,2.96079841 8.91017964,3.22970061 L8.91017964,3.38107785 C8.91017964,3.64998004 8.77507176,3.78443114 8.50485605,3.78443114 L2.41729966,3.78443114 C2.14708392,3.78443114 2.01197605,3.64998004 2.01197605,3.38107785 L2.01197605,3.22970061 C2.01197605,2.96079842 2.14708392,2.82634731 2.41729966,2.82634731 Z" id="路径"></path>
                    <path d="M0.405323612,5.7005988 L6.49288,5.7005988 C6.76309571,5.7005988 6.89820359,5.83504992 6.89820359,6.1039521 L6.89820359,6.25532934 C6.89820359,6.52423152 6.76309571,6.65868263 6.49288,6.65868263 L0.405323612,6.65868263 C0.135107871,6.65868263 0,6.52423152 0,6.25532934 L0,6.1039521 C0,5.83504992 0.135107871,5.7005988 0.405323612,5.7005988 Z" id="路径"></path>
                    <path d="M1.17007002,8.52694611 L9.65627732,8.52694611 C9.92534592,8.52694611 10.0598802,8.66139722 10.0598802,8.9302994 L10.0598802,9.08167665 C10.0598802,9.35057883 9.92534592,9.48502994 9.65627732,9.48502994 L1.17007002,9.48502994 C0.901001394,9.48502994 0.766467066,9.35057883 0.766467066,9.08167665 L0.766467066,8.9302994 C0.766467066,8.66139722 0.901001384,8.52694611 1.17007002,8.52694611 Z" id="路径"></path>
                </g>
                <g id="flutter" transform="translate(8.335329, 0.000000)">
                    <path d="M5.10988024,6.93023952 L7.66467066,4.3754491 L4.74251497,4.3754491 L3.6502994,5.47095808 L5.10988024,6.93053892 L5.10988024,6.93023952 Z M4.74251497,0 L0,4.74251497 L1.45958084,6.20209581 L7.66467066,0 L4.74251497,0 Z" id="形状" fill="#42A5F5" opacity="0.8"></path>
                    <polygon id="路径" fill="#0D47A1" points="4.26976048 8.1757485 3.85449102 8.59401198 3.65 8.38952096 3.65 8.39281437 4.74221557 9.48502994 7.66437126 9.48502994 5.16047904 6.98113772 5.81526946 7.64221557"></polygon>
                    <polygon id="路径" fill="#42A5F5" points="2.19251497 6.93293413 3.6511976 5.4739521 5.11017964 6.93263473 3.65149701 8.39161677"></polygon>
                    <polygon id="路径" fill="#0D47A1" points="3.85479042 8.59401198 4.27005988 8.1757485 3.6505988 8.38982036"></polygon>
                    <polygon id="形状" fill="#000000" points="3.85449102 8.59401198 4.26976048 8.1757485 3.65134731 8.39281437"></polygon>
                    <polygon id="路径" fill="#0D47A1" points="5.10988024 6.93323353 5.31107784 7.13443114 4.27005988 8.1754491 5.81586826 7.64221557 5.11017964 6.92994012"></polygon>
                    <path d="M5.10988024,6.93323353 L5.31107784,7.13443114 L4.27005988,8.1754491 L5.81586826,7.64221557 L5.11017964,6.92994012 L5.10988024,6.93323353 Z M5.10988024,6.93323353 L3.6502994,8.38952096 L5.10988024,6.93323353 Z M5.10988024,6.93323353 L3.6502994,8.38952096 L5.10988024,6.93323353 Z" id="形状" fill="#000000"></path>
                    <polygon id="路径" fill="#0D47A1" points="3.6502994 8.38952096 4.26976048 8.1754491 5.31077844 7.13443114 5.10958084 6.93323353 3.65 8.38952096"></polygon>
                    <polygon id="路径" fill="#000000" points="3.6502994 8.38952096 4.26976048 8.1754491 5.31077844 7.13443114 5.10958084 6.93323353 3.65 8.38952096"></polygon>
                    <polygon id="路径" fill="#000000" points="3.6502994 8.38952096 4.26976048 8.1754491 5.31077844 7.13443114 5.10958084 6.93323353 3.65 8.38952096"></polygon>
                </g>
            </g>
        </g>
    </g>
</svg>